<svg width="554" height="693" viewBox="0 0 554 693" fill="none" xmlns="http://www.w3.org/2000/svg">
<rect x="466.102" y="278.858" width="68.569" height="211.4" transform="rotate(16.0893 466.102 278.858)" fill="#FCFFFB"/>
<path d="M461 356.5H483V389H451.5L461 356.5Z" fill="#E35A72"/>
<rect x="22" y="40" width="18" height="44" fill="#010A29"/>
<rect x="89" y="40" width="18" height="44" fill="#010A29"/>
<rect x="40" y="23" width="49" height="17" fill="#010A29"/>
<rect x="40" y="84" width="49" height="17" fill="#010A29"/>
<rect x="40" y="40" width="49" height="44" fill="#36A3E0"/>
<circle cx="59.5" cy="58.5" r="8.5" fill="#FCFFFB"/>
<rect x="40" y="101" width="16" height="71" fill="#006EB4"/>
<rect x="40" y="101" width="16" height="16" fill="#00498F"/>
<rect width="18" height="44" transform="matrix(-1 0 0 1 439 40)" fill="#010A29"/>
<rect width="18" height="44" transform="matrix(-1 0 0 1 372 40)" fill="#010A29"/>
<rect width="49" height="17" transform="matrix(-1 0 0 1 421 23)" fill="#010A29"/>
<rect width="49" height="17" transform="matrix(-1 0 0 1 421 84)" fill="#010A29"/>
<rect width="49" height="44" transform="matrix(-1 0 0 1 421 40)" fill="#36A3E0"/>
<circle cx="8.5" cy="8.5" r="8.5" transform="matrix(-1 0 0 1 398 48)" fill="#FCFFFB"/>
<rect width="16" height="71" transform="matrix(-1 0 0 1 421 101)" fill="#006EB4"/>
<rect width="16" height="16" transform="matrix(-1 0 0 1 421 101)" fill="#00498F"/>
<rect x="203" width="54" height="109" fill="#010A29"/>
<rect x="185" y="19" width="90" height="48" fill="#010A29"/>
<rect x="126" y="109" width="209" height="22" fill="#010A29"/>
<rect x="203" y="19" width="55" height="48" fill="#FC5E71"/>
<circle cx="225.5" cy="39.5" r="8.5" fill="#FEFEFE"/>
<rect x="106" y="131" width="20" height="20" fill="#010A29"/>
<rect x="335" y="131" width="20" height="20" fill="#010A29"/>
<rect x="126" y="131" width="114" height="78" fill="white"/>
<rect x="86" y="186" width="230" height="91" fill="#3EAEE5"/>
<rect width="20" height="20" transform="matrix(1 0 0 -1 86 190)" fill="#3EAEE5"/>
<rect x="86" y="277" width="288" height="40" fill="#005296"/>
<rect x="316" y="172" width="58" height="145" fill="#005296"/>
<rect x="316" y="151" width="38" height="84" fill="#027DB3"/>
<rect x="316" y="131" width="19" height="20" fill="#027DB3"/>
<rect x="106" y="151" width="20" height="127" fill="#8EF9F7"/>
<rect x="145" y="150" width="171" height="147" fill="#3EAEE5"/>
<rect x="297" y="151" width="38" height="41" fill="#FCFFFB"/>
<rect x="106" y="278" width="20" height="20" fill="#FCFFFB"/>
<rect x="335" y="278" width="20" height="20" fill="#FCFFFB"/>
<rect x="203" y="130" width="113" height="20" fill="#8EF9F7"/>
<rect x="355" y="297" width="20" height="20" fill="#010A29"/>
<rect x="86" y="297" width="20" height="20" fill="#010A29"/>
<rect x="203" y="277" width="55" height="20" fill="#010A29"/>
<rect x="145" y="192" width="38" height="85" fill="#010A29"/>
<rect x="278" y="192" width="38" height="85" fill="#010A29"/>
<rect x="258" y="214" width="77" height="41" fill="#010A29"/>
<rect x="126" y="214" width="77" height="41" fill="#010A29"/>
<rect x="106" y="317" width="249" height="20" fill="#010A29"/>
<rect x="86" y="151" width="20" height="21" fill="#010A29"/>
<rect x="20" y="193" width="20" height="85" fill="#010A29"/>
<rect x="421" y="192" width="20" height="85" fill="#010A29"/>
<rect x="40" y="172" width="46" height="125" fill="#010A29"/>
<rect x="374" y="172" width="47" height="125" fill="#010A29"/>
<rect x="354" y="151" width="20" height="21" fill="#010A29"/>
<rect x="145" y="214" width="38" height="41" fill="#FFC417"/>
<rect x="278" y="214" width="38" height="41" fill="#FFC417"/>
<rect x="40" y="193" width="24" height="85" fill="#FFC417"/>
<rect x="397" y="192" width="24" height="85" fill="#FFC417"/>
<circle cx="164" cy="234" r="8" fill="#FCFFFB"/>
<circle cx="297" cy="235" r="8" fill="#FCFFFB"/>
<rect x="40" y="236" width="24" height="21" fill="#F38C26"/>
<rect x="40" y="192" width="16" height="17" fill="#FCFFFB"/>
<rect x="405" y="192" width="16" height="17" fill="#FCFFFB"/>
<rect x="40" y="257" width="24" height="21" fill="#C73768"/>
<rect x="145" y="253" width="38" height="2" fill="#E2623E"/>
<rect x="278" y="253" width="38" height="2" fill="#E2623E"/>
<rect x="397" y="235" width="24" height="21" fill="#F38C26"/>
<rect x="397" y="256" width="24" height="21" fill="#C73768"/>
<rect x="20" y="637" width="438" height="56" fill="#6BB178"/>
<rect x="40" y="617" width="20" height="20" fill="#6BB178"/>
<rect x="401" y="617" width="20" height="20" fill="#6BB178"/>
<rect x="40" y="656" width="399" height="20" fill="#3A8663"/>
<rect x="126" y="337" width="209" height="25" fill="#010A29"/>
<rect x="78" y="656" width="320" height="20" fill="#010A29"/>
<rect x="334" y="616" width="20" height="20" fill="#010A29"/>
<rect x="374" y="402" width="20" height="20" fill="#010A29"/>
<rect x="374" y="431" width="20" height="20" fill="#010A29"/>
<rect x="67" y="402" width="20" height="20" fill="#010A29"/>
<rect x="67" y="431" width="20" height="20" fill="#010A29"/>
<rect x="40" y="478" width="27" height="20" fill="#010A29"/>
<rect x="374" y="362" width="20" height="20" fill="#010A29"/>
<rect x="394" y="382" width="30" height="20" fill="#010A29"/>
<rect x="67" y="362" width="20" height="20" fill="#010A29"/>
<rect x="107" y="616" width="20" height="20" fill="#010A29"/>
<rect x="20" y="402" width="20" height="45" fill="#010A29"/>
<rect x="20" y="498" width="20" height="35" fill="#010A29"/>
<rect x="67" y="498" width="20" height="35" fill="#010A29"/>
<rect y="447" width="20" height="66" fill="#010A29"/>
<rect x="127" y="533" width="20" height="83" fill="#010A29"/>
<rect x="314" y="533" width="20" height="83" fill="#010A29"/>
<rect x="354" y="362" width="20" height="151" fill="#010A29"/>
<rect x="87" y="362" width="20" height="151" fill="#010A29"/>
<rect x="261" y="533" width="20" height="83" fill="#010A29"/>
<rect x="183" y="533" width="20" height="83" fill="#010A29"/>
<rect x="193" y="616" width="20" height="20" fill="#010A29"/>
<rect x="40" y="382" width="27" height="20" fill="#010A29"/>
<rect x="40" y="533" width="27" height="20" fill="#010A29"/>
<rect x="391" y="480" width="101" height="20" fill="#010A29"/>
<rect x="451" y="273" width="102" height="20" fill="#010A29"/>
<rect x="391" y="480" width="215.345" height="18.928" transform="rotate(-73.8281 391 480)" fill="#010A29"/>
<rect x="472.876" y="494.454" width="219.125" height="19.9118" transform="rotate(-73.8281 472.876 494.454)" fill="#010A29"/>
<rect x="249" y="616" width="20" height="20" fill="#010A29"/>
<rect x="203" y="533" width="58" height="20" fill="#010A29"/>
<rect x="106" y="513" width="60" height="20" fill="#010A29"/>
<rect x="295" y="513" width="59" height="20" fill="#010A29"/>
<rect x="475" y="362" width="64" height="85" fill="#010A29"/>
<rect x="475" y="244" width="64" height="62" fill="#010A29"/>
<rect x="135" y="560" width="58" height="20" fill="#010A29"/>
<rect x="268" y="560" width="58" height="20" fill="#010A29"/>
<rect x="98" y="636" width="20" height="20" fill="#010A29"/>
<rect x="201" y="636" width="60" height="20" fill="#010A29"/>
<rect x="344" y="636" width="20" height="20" fill="#010A29"/>
<rect x="107" y="382" width="247" height="131" fill="#3FAFE9"/>
<rect x="107" y="382" width="20" height="20" fill="#96FAFC"/>
<rect x="165" y="513" width="130" height="20" fill="#0066AA"/>
<rect x="165" y="513" width="130" height="20" fill="#0066AA"/>
<rect x="126" y="493" width="39" height="20" fill="#0066AA"/>
<rect x="126" y="493" width="39" height="20" fill="#0066AA"/>
<rect x="268" y="490" width="67" height="23" fill="#0066AA"/>
<rect x="268" y="490" width="67" height="23" fill="#0066AA"/>
<rect x="335" y="419" width="19" height="94" fill="#0066AA"/>
<rect x="335" y="419" width="19" height="94" fill="#0066AA"/>
<rect x="316" y="382" width="19" height="112" fill="#0066AA"/>
<rect x="20" y="447" width="47" height="31" fill="#96FAFC"/>
<rect x="40" y="498" width="27" height="35" fill="#96FAFC"/>
<rect x="40" y="402" width="27" height="45" fill="#96FAFC"/>
<rect x="183" y="362" width="85" height="20" fill="#96FAFC"/>
<rect x="281" y="362" width="73" height="40" fill="#0066AA"/>
<rect x="298" y="362" width="37" height="20" fill="#C2E2E1"/>
<rect x="107" y="362" width="55" height="20" fill="#FCFFFB"/>
<rect x="335" y="399" width="19" height="20" fill="#033477"/>
<rect x="145" y="398" width="171" height="95" fill="#FCFFFF"/>
<path d="M288 397.5H316V492.5H243C243 492.5 262 469.5 274 443.5C286 417.5 288 397.5 288 397.5Z" fill="#D9D9D9"/>
<rect x="164" y="412" width="74" height="20" fill="#41AEE5"/>
<rect x="201" y="451" width="37" height="20" fill="#41AEE5"/>
<rect x="275" y="451" width="14" height="20" fill="#0268B0"/>
<rect x="163" y="451" width="20" height="20" fill="#F55B71"/>
<rect x="251" y="412" width="40" height="20" fill="#F55B71"/>
<rect x="251" y="451" width="18" height="20" fill="#F55B71"/>
<rect x="316" y="493" width="38" height="20" fill="#005195"/>
<rect x="335" y="419" width="19" height="94" fill="#005195"/>
<rect x="163" y="533" width="20" height="27" fill="#0071AF"/>
<rect x="295" y="533" width="19" height="27" fill="#0071AF"/>
<rect x="297" y="580" width="17" height="20" fill="#0071AF"/>
<rect x="281" y="533" width="14" height="27" fill="#FBFEFF"/>
<rect x="147" y="533" width="19" height="27" fill="#FBFEFF"/>
<rect x="147" y="580" width="19" height="37" fill="#FBFEFF"/>
<rect x="281" y="580" width="16" height="36" fill="#FBFEFF"/>
<rect x="269" y="616" width="65" height="21" fill="#3DAEE7"/>
<rect x="127" y="616" width="66" height="21" fill="#3DAEE7"/>
<rect x="466" y="327" width="49" height="16" fill="#3DAEE7"/>
<rect x="166" y="580" width="17" height="20" fill="#0071AF"/>
<rect x="297" y="596" width="17" height="20" fill="#004589"/>
<rect x="261" y="636" width="83" height="20" fill="#004589"/>
<rect x="118" y="636" width="85" height="20" fill="#004589"/>
<rect x="166" y="600" width="17" height="16" fill="#004589"/>
<rect x="67" y="451" width="20" height="47" fill="#005195"/>
<rect x="67" y="422" width="20" height="9" fill="#005195"/>
<rect x="67" y="382" width="20" height="20" fill="#005195"/>
<rect x="20" y="478" width="20" height="20" fill="#3FAFE9"/>
<rect x="20" y="447" width="14" height="14" fill="#D9D9D9"/>
<rect x="40" y="402" width="14" height="14" fill="#FBFEFF"/>
<rect x="20" y="447" width="14" height="14" fill="#FBFEFF"/>
<rect x="492" y="419" width="33" height="13" fill="#0269AC"/>
<rect x="492" y="398" width="33" height="21" fill="#4DB3EB"/>
<rect x="492" y="379" width="33" height="20" fill="#B5FEFA"/>
<rect x="442" y="399" width="20" height="20" fill="#71BB77"/>
<rect x="442" y="419" width="20" height="20" fill="#3B7E5C"/>
<rect x="462" y="419" width="20" height="20" fill="#49B2E9"/>
</svg>
